Coordinates
version=1
nRows=19
nColumns=36
inDegrees=yes

Units are S.I. units (second, meters, Newtons, ...)
If the header above contains a line with 'inDegrees', this indicates whether rotational values are in degrees (yes) or radians (no).

endheader
time	pelvis_tilt	pelvis_list	pelvis_rotation	pelvis_tx	pelvis_ty	pelvis_tz	hip_flexion_r	hip_adduction_r	hip_rotation_r	knee_angle_r	knee_angle_r_beta	ankle_angle_r	subtalar_angle_r	mtp_angle_r	hip_flexion_l	hip_adduction_l	hip_rotation_l	knee_angle_l	knee_angle_l_beta	ankle_angle_l	subtalar_angle_l	mtp_angle_l	lumbar_extension	lumbar_bending	lumbar_rotation	arm_flex_r	arm_add_r	arm_rot_r	elbow_flex_r	pro_sup_r	arm_flex_l	arm_add_l	arm_rot_l	elbow_flex_l	pro_sup_l
      1.62000000	    -15.66446644	      2.85209843	     -7.84511241	     -0.34166279	      0.66219331	     -0.55578719	     80.32687633	      2.07573355	      9.52838075	     95.91786250	      1.67408251	     34.27578121	     -2.97516932	     -7.49933976	     82.06460974	    -10.68453178	      0.41326375	     94.58754170	      1.65086403	     25.83813462	    -15.35154979	     -7.49933976	    -28.12658652	     -2.10960782	     21.04162912	    179.83021379	   -161.59534779	    155.23473692	     91.59443144	    106.48721355	     22.86972195	     -3.16997057	     -5.46693012	     53.28520812	    102.42702586
      1.63000000	    -16.72034075	      3.37609100	     -7.59188762	     -0.34072890	      0.65321998	     -0.55672583	     82.60356419	      1.74093317	      9.85711958	     97.50242346	      1.70173832	     34.35396113	     -2.96145234	     -7.49935898	     84.06395699	    -10.39682332	      0.22961534	     95.85996840	      1.67307207	     26.16372882	    -15.24423136	     -7.49935898	    -28.01387251	     -3.05950976	     23.79531137	    179.86722412	   -160.40470820	    154.63586041	     95.94468856	    106.16057253	     29.25957449	      0.38806950	     -1.42829778	     51.52744258	    102.41757294
      1.64000000	    -17.82430608	      3.81764102	     -7.11435172	     -0.33983235	      0.64492240	     -0.55817626	     84.72836638	      1.23684126	     10.16103533	     98.86947068	      1.72559779	     34.53707756	     -2.93120222	     -7.49937315	     85.96953911	     -9.90363866	      0.07146679	     96.88099487	      1.69089234	     26.45968859	    -15.15326886	     -7.49937315	    -27.88267597	     -3.89467805	     26.22675731	    179.89068386	   -158.66015938	    153.75760475	    100.29697697	    105.84584380	     35.14825951	      4.39728585	      1.86532490	     49.91680777	    102.37753327
      1.65000000	    -18.83442354	      4.17543488	     -6.53214520	     -0.33884364	      0.63768567	     -0.55982947	     86.47951057	      0.71037670	     10.56524215	     99.98172172	      1.74501024	     35.06151917	     -2.75510963	     -7.49940307	     87.65365915	     -9.43219933	     -0.15857879	     97.73128789	      1.70573276	     26.88902800	    -14.84925797	     -7.49940307	    -27.81782947	     -4.64350462	     28.47170783	    179.90436901	   -156.20997304	    152.83964549	    104.39229920	    104.71662101	     40.78405897	      8.42486514	      5.57747791	     48.05912915	    102.12082849
      1.66000000	    -19.43536750	      4.35742765	     -5.98988238	     -0.33757391	      0.63220040	     -0.56123917	     87.51394395	      0.32981371	     10.94678057	    100.90309627	      1.76109126	     35.63527387	     -2.76590772	     -7.49954020	     88.76685029	     -9.08640871	     -0.34379708	     98.47979120	      1.71879660	     27.31133674	    -14.49393026	     -7.49954020	    -28.25542230	     -5.31508404	     30.67406659	    179.91232628	   -153.08118945	    151.58424881	    108.65216236	     99.53501944	     46.23704964	     12.88404227	      8.24499405	     46.25097082	    100.62108397
      1.67000000	    -19.84508961	      4.48466977	     -5.49146851	     -0.33624538	      0.62819368	     -0.56216091	     88.15464102	      0.14505495	     11.36787535	    101.59516207	      1.77317008	     36.07917814	     -2.95256074	     -7.49955703	     89.52024396	     -8.78322743	     -0.48097037	     99.00702961	      1.72799865	     27.59753642	    -14.17665859	     -7.49955703	    -28.92833483	     -6.04149601	     32.77035834	    179.91603068	   -149.21871216	    149.80665765	    112.29690356	     99.20160524	     51.54514254	     17.30851125	     10.69513380	     44.38841288	    100.53003675
      1.68000000	    -20.00278485	      4.51633001	     -4.99588545	     -0.33488037	      0.62539273	     -0.56256826	     88.40585596	      0.05448100	     11.70317891	    102.20197904	      1.78376104	     36.44361685	     -3.31856125	     -7.49956265	     89.94186721	     -8.52882291	     -0.57077164	     99.43702478	      1.73550348	     27.70110228	    -14.00675613	     -7.49956265	    -29.87601235	     -6.78792758	     34.59957244	    179.91629514	   -144.74916263	    147.58130203	    115.82119157	     99.02039463	     56.66911836	     21.65839098	     12.23748207	     43.23873068	    100.41685630
      1.69000000	    -20.02647684	      4.51455636	     -4.49860549	     -0.33365008	      0.62344533	     -0.56264535	     88.42856013	      0.05324964	     12.03641491	    102.70949094	      1.79261879	     36.74946389	     -3.83423373	     -7.49956853	     90.16153713	     -8.27705509	     -0.64095601	     99.76199231	      1.74117523	     27.86763029	    -13.78801160	     -7.49956853	    -30.79941809	     -7.55741675	     36.22385134	    179.91276197	   -139.55772175	    144.87982586	    118.60931218	     98.55800808	     61.98905053	     25.69434994	     14.08721301	     41.88407963	    100.18777506
      1.70000000	    -20.10334270	      4.48788358	     -3.97887735	     -0.33255117	      0.62210673	     -0.56273771	     88.43989614	      0.07910103	     12.36477085	    103.09306017	      1.79931334	     36.78627742	     -4.64296200	     -7.49967468	     90.32490477	     -7.93635250	     -0.64906261	     99.93844532	      1.74425492	     28.32090141	    -13.28181676	     -7.49967468	    -31.55748689	     -8.16809931	     37.49534611	    179.90370177	   -133.58629562	    142.34663747	    121.59358477	     88.08546928	     67.41872553	     29.12499544	     16.78557107	     41.19633434	     94.61651435
      1.71000000	    -20.13794615	      4.40734631	     -3.47010472	     -0.33156343	      0.62155308	     -0.56308250	     88.29503204	      0.08755351	     12.66629780	    103.33966225	      1.80361735	     36.99292791	     -5.09563846	     -7.49968109	     90.35484898	     -7.49128127	     -0.57855362	     99.96429447	      1.74470607	     28.38453021	    -13.35919286	     -7.49968109	    -32.32912322	     -8.50493066	     38.42964649	    179.88727752	   -126.76810338	    139.12132640	    123.32679095	     87.87121356	     72.80523238	     32.20707732	     17.71713977	     40.80555699	     94.54347832
      1.72000000	    -20.31283963	      4.29845169	     -2.93464009	     -0.33066501	      0.62150464	     -0.56385882	     88.17298234	      0.02433673	     12.92579438	    103.39699068	      1.80461792	     37.13195584	     -5.47752382	     -7.49968402	     90.46067860	     -6.93709192	     -0.45275420	     99.87001468	      1.74306058	     28.39733623	    -13.34437427	     -7.49968402	    -32.86622024	     -8.54269847	     39.03333797	    179.85731069	   -119.17616853	    135.72574981	    124.44607513	     87.64290873	     78.07613186	     34.66137811	     18.15567567	     41.18306325	     94.57440089
      1.73000000	    -20.08953309	      4.05123996	     -2.62616994	     -0.32976620	      0.62316172	     -0.56418992	     87.40770424	      0.24191251	     13.03927125	    103.19180277	      1.80103672	     37.29653417	     -6.14165431	     -7.49968789	     90.03829077	     -6.66027373	     -0.25008393	     99.67782764	      1.73970628	     28.44279923	    -13.43027606	     -7.49968789	    -34.02383002	     -8.48094941	     39.37542882	    179.79209701	   -110.46633531	    131.76670095	    124.64756007	     87.10655356	     84.07437000	     36.39962130	     17.85819385	     41.84995546	     94.63395649
      1.74000000	    -19.93926781	      3.77943630	     -2.47230303	     -0.32886398	      0.62530705	     -0.56445319	     86.67958103	      0.62435329	     13.09909675	    102.83589823	      1.79482501	     37.15280511	     -7.25375381	     -7.49977308	     89.61465015	     -6.51956611	     -0.03556911	     99.42105613	      1.73522478	     28.51217238	    -13.54630754	     -7.49977308	    -35.14690165	     -8.22276748	     39.30732715	    179.58040483	   -100.74426216	    128.11485323	    124.91264423	     76.06974329	     89.91577840	     37.35948451	     15.92994832	     43.42158886	     96.86563149
      1.75000000	    -19.50424852	      4.38735177	     -2.33085721	     -0.32831906	      0.62815542	     -0.56291720	     85.86128276	      0.94618898	     14.01912521	    102.65674390	      1.79169818	     37.05348532	     -8.16746942	     -7.50010808	     88.58884972	     -6.40667047	     -0.72982737	     98.86658559	      1.72554744	     28.58391945	    -13.53645404	     -7.50010808	    -31.90544499	     -1.88605093	     -0.01688525	     85.00800688	     -3.31338557	     19.35274818	     72.42691142	    106.26777650	     83.21200059	     -3.02938121	      6.19991749	     71.71401803	    106.63303739
      1.76000000	    -20.01885316	      4.42981411	     -2.24288777	     -0.32647880	      0.62907093	     -0.56260869	     85.89436943	      1.31393632	     14.32826712	    102.40347120	      1.78727774	     37.20153085	     -8.67047356	     -7.50010545	     88.76416136	     -6.35716034	     -0.77030028	     98.60361657	      1.72095776	     28.64976717	    -13.60788424	     -7.50010545	    -31.17659190	     -2.05114805	      0.04200077	     90.10736206	     -3.41610353	     20.91208018	     72.16199850	    106.38270545	     88.70757947	     -3.26182558	      9.24875458	     71.77671594	    106.77829463
      1.77000000	    -20.47649018	      4.44170352	     -2.17869517	     -0.32432165	      0.63091677	     -0.56226609	     85.76263032	      1.63541285	     14.55441098	    102.01168275	      1.78043974	     37.28685976	     -9.15359664	     -7.50010390	     88.74182347	     -6.28049230	     -0.77169173	     98.21415791	      1.71416043	     28.73235296	    -13.69197867	     -7.50010390	    -30.49769102	     -2.22943510	      0.10547087	     95.15819230	     -3.56752313	     22.22806142	     71.89407359	    106.42710655	     94.20728399	     -3.42231609	     12.03127038	     71.72283100	    106.90123030
      1.78000000	    -20.99603751	      4.44464760	     -2.10585252	     -0.32176938	      0.63359736	     -0.56199874	     85.58817022	      1.89481435	     14.72673552	    101.46145468	      1.77083645	     37.22776650	     -9.67709428	     -7.50010233	     88.63808621	     -6.15297769	     -0.76468241	     97.66365174	      1.70455228	     28.81172983	    -13.83033047	     -7.50010233	    -29.74421058	     -2.40308411	      0.15037915	    100.11499538	     -3.79695272	     23.44761035	     71.62380295	    106.40745332	     99.68196629	     -3.71239580	     14.78717331	     71.64318934	    106.96589044
      1.79000000	    -21.37465312	      4.43184151	     -2.08669254	     -0.31879118	      0.63714035	     -0.56170341	     85.17520878	      2.13873754	     14.84625437	    100.82536152	      1.75973453	     37.16894730	    -10.19965083	     -7.50010100	     88.29838323	     -6.04952259	     -0.73735139	     97.06221989	      1.69405532	     28.84771390	    -13.95086778	     -7.50010100	    -29.07128234	     -2.52684739	      0.31999695	    105.01387591	     -3.98866885	     24.46599371	     71.22189979	    106.33221136	    104.94426024	     -3.92291526	     17.13528017	     71.58662323	    106.97546106
      1.80000000	    -21.77164621	      4.43549515	     -2.12231435	     -0.31545986	      0.64113785	     -0.56139210	     84.73044380	      2.37482466	     14.94023065	    100.10954152	      1.74724111	     37.12018464	    -10.67731363	     -7.50009986	     87.90338771	     -5.99595435	     -0.72055908	     96.42897721	      1.68300315	     28.91411071	    -14.04510908	     -7.50009986	    -28.21801143	     -2.61319894	      0.63216914	    109.77352738	     -4.13912060	     25.43724715	     70.64801270	    106.21406464	    109.81243142	     -3.96370643	     18.90451256	     71.45076927	    106.93640247
